#pragma once
#include <ArduboyTones.h>

const uint16_t music_loop[] PROGMEM = {
  NOTE_CS5, 84,  NOTE_REST, 87,  NOTE_E5, 84,  NOTE_REST, 87,
  NOTE_GS5, 84,  NOTE_REST, 87,  NOTE_CS6, 84,  NOTE_REST, 87,
  NOTE_CS7, 84,  NOTE_REST, 87,  NOTE_GS6, 84,  NOTE_REST, 87,
  NOTE_E6, 84,  NOTE_REST, 87,  NOTE_CS6, 84,  NOTE_REST, 87,
  NOTE_CS5, 84,  NOTE_REST, 87,  NOTE_E5, 84,  NOTE_REST, 87,
  NOTE_GS5, 84,  NOTE_REST, 87,  NOTE_CS6, 84,  NOTE_REST, 87,
  NOTE_CS7, 84,  NOTE_REST, 87,  NOTE_GS6, 84,  NOTE_REST, 87,
  NOTE_E6, 84,  NOTE_REST, 87,  NOTE_CS6, 84,  NOTE_REST, 87,
  NOTE_GS4, 84,  NOTE_REST, 87,  NOTE_DS5, 84,  NOTE_REST, 87,
  NOTE_GS5, 84,  NOTE_REST, 87,  NOTE_B5, 84,  NOTE_REST, 87,
  NOTE_B6, 84,  NOTE_REST, 87,  NOTE_GS6, 84,  NOTE_REST, 87,
  NOTE_DS6, 84,  NOTE_REST, 87,  NOTE_GS5, 84,  NOTE_REST, 87,
  NOTE_GS4, 84,  NOTE_REST, 87,  NOTE_DS5, 84,  NOTE_REST, 87,
  NOTE_GS5, 84,  NOTE_REST, 87,  NOTE_B5, 84,  NOTE_REST, 87,
  NOTE_B6, 84,  NOTE_REST, 87,  NOTE_GS6, 84,  NOTE_REST, 87,
  NOTE_DS6, 84,  NOTE_REST, 87,  NOTE_GS5, 84,  NOTE_REST, 87,
  NOTE_A4, 84,  NOTE_REST, 87,  NOTE_CS5, 84,  NOTE_REST, 87,
  NOTE_E5, 84,  NOTE_REST, 87,  NOTE_A5, 84,  NOTE_REST, 87,
  NOTE_A6, 84,  NOTE_REST, 87,  NOTE_E6, 84,  NOTE_REST, 87,
  NOTE_CS6, 84,  NOTE_REST, 87,  NOTE_A5, 84,  NOTE_REST, 87,
  NOTE_A4, 84,  NOTE_REST, 87,  NOTE_CS5, 84,  NOTE_REST, 87,
  NOTE_E5, 84,  NOTE_REST, 87,  NOTE_A5, 84,  NOTE_REST, 87,
  NOTE_A6, 84,  NOTE_REST, 87,  NOTE_E6, 84,  NOTE_REST, 87,
  NOTE_CS6, 84,  NOTE_REST, 87,  NOTE_A5, 84,  NOTE_REST, 87,
  NOTE_E4, 84,  NOTE_REST, 87,  NOTE_B4, 84,  NOTE_REST, 87,
  NOTE_E5, 84,  NOTE_REST, 87,  NOTE_GS5, 84,  NOTE_REST, 87,
  NOTE_GS6, 84,  NOTE_REST, 87,  NOTE_E6, 84,  NOTE_REST, 87,
  NOTE_B5, 84,  NOTE_REST, 87,  NOTE_E5, 84,  NOTE_REST, 87,
  NOTE_E4, 84,  NOTE_REST, 87,  NOTE_B4, 84,  NOTE_REST, 87,
  NOTE_E5, 84,  NOTE_REST, 87,  NOTE_GS5, 84,  NOTE_REST, 87,
  NOTE_GS6, 84,  NOTE_REST, 87,  NOTE_E6, 84,  NOTE_REST, 87,
  NOTE_B5, 84,  NOTE_REST, 87,  NOTE_E5, 84,  NOTE_REST, 87,
  NOTE_E4, 84,  NOTE_REST, 87,  NOTE_AS4, 84,  NOTE_REST, 87,
  NOTE_D5, 84,  NOTE_REST, 87,  NOTE_GS5, 84,  NOTE_REST, 87,
  NOTE_GS6, 84,  NOTE_REST, 87,  NOTE_D6, 84,  NOTE_REST, 87,
  NOTE_AS5, 84,  NOTE_REST, 87,  NOTE_E5, 84,  NOTE_REST, 87,
  NOTE_E4, 84,  NOTE_REST, 87,  NOTE_AS4, 84,  NOTE_REST, 87,
  NOTE_D5, 84,  NOTE_REST, 87,  NOTE_GS5, 84,  NOTE_REST, 87,
  NOTE_GS6, 84,  NOTE_REST, 87,  NOTE_D6, 84,  NOTE_REST, 87,
  NOTE_AS5, 84,  NOTE_REST, 87,  NOTE_E5, 84,  NOTE_REST, 87,
  NOTE_DS4, 84,  NOTE_REST, 87,  NOTE_CS5, 84,  NOTE_REST, 87,
  NOTE_G5, 84,  NOTE_REST, 87,  NOTE_AS5, 84,  NOTE_REST, 87,
  NOTE_AS6, 84,  NOTE_REST, 87,  NOTE_G6, 84,  NOTE_REST, 87,
  NOTE_CS6, 84,  NOTE_REST, 87,  NOTE_DS5, 84,  NOTE_REST, 87,
  NOTE_DS4, 84,  NOTE_REST, 87,  NOTE_CS5, 84,  NOTE_REST, 87,
  NOTE_G5, 84,  NOTE_REST, 87,  NOTE_AS5, 84,  NOTE_REST, 87,
  NOTE_AS6, 84,  NOTE_REST, 87,  NOTE_G6, 84,  NOTE_REST, 87,
  NOTE_CS6, 84,  NOTE_REST, 87,  NOTE_DS5, 84,  NOTE_REST, 87,
  NOTE_GS4, 84,  NOTE_REST, 87,  NOTE_CS5, 84,  NOTE_REST, 87,
  NOTE_E5, 84,  NOTE_REST, 87,  NOTE_GS5, 84,  NOTE_REST, 87,
  NOTE_GS6, 84,  NOTE_REST, 87,  NOTE_E6, 84,  NOTE_REST, 87,
  NOTE_CS6, 84,  NOTE_REST, 87,  NOTE_GS5, 84,  NOTE_REST, 87,
  NOTE_GS4, 84,  NOTE_REST, 87,  NOTE_CS5, 84,  NOTE_REST, 87,
  NOTE_E5, 84,  NOTE_REST, 87,  NOTE_GS5, 84,  NOTE_REST, 87,
  NOTE_GS6, 84,  NOTE_REST, 87,  NOTE_E6, 84,  NOTE_REST, 87,
  NOTE_CS6, 84,  NOTE_REST, 87,  NOTE_GS5, 84,  NOTE_REST, 87,
  NOTE_GS4, 84,  NOTE_REST, 87,  NOTE_DS5, 84,  NOTE_REST, 87,
  NOTE_FS5, 84,  NOTE_REST, 87,  NOTE_C6, 84,  NOTE_REST, 87,
  NOTE_C7, 84,  NOTE_REST, 87,  NOTE_FS6, 84,  NOTE_REST, 87,
  NOTE_DS6, 84,  NOTE_REST, 87,  NOTE_GS5, 84,  NOTE_REST, 87,
  NOTE_GS4, 84,  NOTE_REST, 87,  NOTE_DS5, 84,  NOTE_REST, 87,
  NOTE_FS5, 84,  NOTE_REST, 87,  NOTE_C6, 84,  NOTE_REST, 87,
  NOTE_C7, 84,  NOTE_REST, 87,  NOTE_FS6, 84,  NOTE_REST, 87,
  NOTE_DS6, 84,  NOTE_REST, 87,  NOTE_GS5, 84,  NOTE_REST, 87,
  NOTE_CS5, 84,  NOTE_REST, 87,  NOTE_E5, 84,  NOTE_REST, 87,
  NOTE_GS5, 84,  NOTE_REST, 87,  NOTE_CS6, 84,  NOTE_REST, 87,
  NOTE_CS7, 84,  NOTE_REST, 87,  NOTE_GS6, 84,  NOTE_REST, 87,
  NOTE_E6, 84,  NOTE_REST, 87,  NOTE_CS6, 84,  NOTE_REST, 87,
  NOTE_CS5, 84,  NOTE_REST, 87,  NOTE_E5, 84,  NOTE_REST, 87,
  NOTE_GS5, 84,  NOTE_REST, 87,  NOTE_CS6, 84,  NOTE_REST, 87,
  NOTE_CS7, 84,  NOTE_REST, 87,  NOTE_GS6, 84,  NOTE_REST, 87,
  NOTE_E6, 84,  NOTE_REST, 87,  NOTE_CS6, 84,
  TONES_REPEAT
};